<mxfile host="app.diagrams.net" modified="2024-01-30T06:51:19.169Z" agent="Mozilla/5.0 (Windows NT 10.0; Win64; x64) AppleWebKit/537.36 (KHTML, like Gecko) Chrome/121.0.0.0 Safari/537.36" etag="F5lfLsAnrzZFF3J8oSLg" version="23.0.2" type="github">
  <diagram name="Page-1" id="_XKRrcq2-p4gCkYe-uUm">
    <mxGraphModel dx="8534" dy="133" grid="1" gridSize="10" guides="1" tooltips="1" connect="1" arrows="1" fold="1" page="1" pageScale="1" pageWidth="1654" pageHeight="1169" math="0" shadow="0">
      <root>
        <mxCell id="0" />
        <mxCell id="1" parent="0" />
        <mxCell id="C-XAIdoLN-AyLL-kkkNF-1" value="" style="endArrow=classic;startArrow=none;html=1;rounded=0;strokeWidth=21;startFill=0;" edge="1" parent="1">
          <mxGeometry width="50" height="50" relative="1" as="geometry">
            <mxPoint x="-1250" y="3895" as="sourcePoint" />
            <mxPoint x="-440" y="3895" as="targetPoint" />
          </mxGeometry>
        </mxCell>
        <mxCell id="C-XAIdoLN-AyLL-kkkNF-2" value="&lt;span style=&quot;font-size: 43px;&quot;&gt;Використання процесора&amp;nbsp;&lt;/span&gt;" style="text;html=1;align=center;verticalAlign=middle;resizable=0;points=[];autosize=1;strokeColor=none;fillColor=none;" vertex="1" parent="1">
          <mxGeometry x="-1160" y="3810" width="540" height="70" as="geometry" />
        </mxCell>
        <mxCell id="C-XAIdoLN-AyLL-kkkNF-3" value="" style="labelPosition=right;align=left;strokeWidth=21;shape=mxgraph.mockup.markup.curlyBrace;html=1;shadow=0;dashed=0;strokeColor=#000000;direction=north;" vertex="1" parent="1">
          <mxGeometry x="-1520" y="3810" width="360" height="780" as="geometry" />
        </mxCell>
        <mxCell id="C-XAIdoLN-AyLL-kkkNF-4" value="&lt;span style=&quot;font-size: 43px;&quot;&gt;CPU usage&lt;/span&gt;" style="text;html=1;align=center;verticalAlign=middle;resizable=0;points=[];autosize=1;strokeColor=none;fillColor=none;" vertex="1" parent="1">
          <mxGeometry x="-1010" y="3910" width="240" height="70" as="geometry" />
        </mxCell>
        <mxCell id="C-XAIdoLN-AyLL-kkkNF-5" value="&lt;span style=&quot;font-size: 43px;&quot;&gt;Значення метрик&lt;/span&gt;" style="text;html=1;align=center;verticalAlign=middle;resizable=0;points=[];autosize=1;strokeColor=none;fillColor=none;" vertex="1" parent="1">
          <mxGeometry x="580" y="4100" width="360" height="70" as="geometry" />
        </mxCell>
        <mxCell id="C-XAIdoLN-AyLL-kkkNF-6" value="" style="endArrow=classic;startArrow=none;html=1;rounded=0;strokeWidth=21;startFill=0;" edge="1" parent="1">
          <mxGeometry width="50" height="50" relative="1" as="geometry">
            <mxPoint x="490" y="4185" as="sourcePoint" />
            <mxPoint x="1060" y="4185" as="targetPoint" />
          </mxGeometry>
        </mxCell>
        <mxCell id="C-XAIdoLN-AyLL-kkkNF-7" value="&lt;span style=&quot;font-size: 43px;&quot;&gt;Використання пам&#39;яті&amp;nbsp;&lt;/span&gt;" style="text;html=1;align=center;verticalAlign=middle;resizable=0;points=[];autosize=1;strokeColor=none;fillColor=none;" vertex="1" parent="1">
          <mxGeometry x="-1120" y="4120" width="460" height="70" as="geometry" />
        </mxCell>
        <mxCell id="C-XAIdoLN-AyLL-kkkNF-8" value="&lt;span style=&quot;font-size: 43px;&quot;&gt;RAM usage&lt;/span&gt;" style="text;html=1;align=center;verticalAlign=middle;resizable=0;points=[];autosize=1;strokeColor=none;fillColor=none;" vertex="1" parent="1">
          <mxGeometry x="-1015" y="4220" width="250" height="70" as="geometry" />
        </mxCell>
        <mxCell id="C-XAIdoLN-AyLL-kkkNF-9" value="" style="endArrow=classic;startArrow=none;html=1;rounded=0;strokeWidth=21;startFill=0;" edge="1" parent="1">
          <mxGeometry width="50" height="50" relative="1" as="geometry">
            <mxPoint x="-1250" y="4205" as="sourcePoint" />
            <mxPoint x="-440" y="4205" as="targetPoint" />
          </mxGeometry>
        </mxCell>
        <mxCell id="C-XAIdoLN-AyLL-kkkNF-10" value="" style="ellipse;whiteSpace=wrap;html=1;fontSize=48;verticalAlign=top;fillColor=#000000;strokeColor=none;shadow=0;" vertex="1" parent="1">
          <mxGeometry x="-872" y="4300" width="22.5" height="22.5" as="geometry" />
        </mxCell>
        <mxCell id="C-XAIdoLN-AyLL-kkkNF-11" value="" style="ellipse;whiteSpace=wrap;html=1;fontSize=48;verticalAlign=top;fillColor=#000000;strokeColor=none;shadow=0;" vertex="1" parent="1">
          <mxGeometry x="-872" y="4335" width="22.5" height="22.5" as="geometry" />
        </mxCell>
        <mxCell id="C-XAIdoLN-AyLL-kkkNF-12" value="" style="ellipse;whiteSpace=wrap;html=1;fontSize=48;verticalAlign=top;fillColor=#000000;strokeColor=none;shadow=0;" vertex="1" parent="1">
          <mxGeometry x="-872" y="4370" width="22.5" height="22.5" as="geometry" />
        </mxCell>
        <mxCell id="C-XAIdoLN-AyLL-kkkNF-13" value="&lt;span style=&quot;font-size: 43px;&quot;&gt;Час відповіді&lt;/span&gt;" style="text;html=1;align=center;verticalAlign=middle;resizable=0;points=[];autosize=1;strokeColor=none;fillColor=none;" vertex="1" parent="1">
          <mxGeometry x="-1030" y="4410" width="280" height="70" as="geometry" />
        </mxCell>
        <mxCell id="C-XAIdoLN-AyLL-kkkNF-14" value="" style="endArrow=classic;startArrow=none;html=1;rounded=0;strokeWidth=21;startFill=0;" edge="1" parent="1">
          <mxGeometry width="50" height="50" relative="1" as="geometry">
            <mxPoint x="-1250" y="4495" as="sourcePoint" />
            <mxPoint x="-440" y="4495" as="targetPoint" />
          </mxGeometry>
        </mxCell>
        <mxCell id="C-XAIdoLN-AyLL-kkkNF-15" value="&lt;span style=&quot;font-size: 43px;&quot;&gt;Response time&lt;/span&gt;" style="text;html=1;align=center;verticalAlign=middle;resizable=0;points=[];autosize=1;strokeColor=none;fillColor=none;" vertex="1" parent="1">
          <mxGeometry x="-1045" y="4510" width="310" height="70" as="geometry" />
        </mxCell>
        <mxCell id="C-XAIdoLN-AyLL-kkkNF-16" value="&lt;span style=&quot;font-size: 40px;&quot;&gt;&lt;b&gt;ВХІДНІ ПАРАМЕТРИ&lt;/b&gt;&lt;/span&gt;" style="edgeLabel;html=1;align=center;verticalAlign=middle;resizable=0;points=[];rotation=-90;" vertex="1" connectable="0" parent="1">
          <mxGeometry x="-1490.0044428231577" y="4199.99774615374" as="geometry" />
        </mxCell>
        <mxCell id="C-XAIdoLN-AyLL-kkkNF-17" value="" style="sketch=0;points=[[0.015,0.015,0],[0.985,0.015,0],[0.985,0.985,0],[0.015,0.985,0],[0.25,0,0],[0.5,0,0],[0.75,0,0],[1,0.25,0],[1,0.5,0],[1,0.75,0],[0.75,1,0],[0.5,1,0],[0.25,1,0],[0,0.75,0],[0,0.5,0],[0,0.25,0]];verticalLabelPosition=bottom;html=1;verticalAlign=top;aspect=fixed;align=center;pointerEvents=1;shape=mxgraph.cisco19.rect;prIcon=monitor;fillColor=#FAFAFA;strokeColor=#000000;" vertex="1" parent="1">
          <mxGeometry x="-445.2" y="3830" width="947.2" height="740" as="geometry" />
        </mxCell>
        <mxCell id="C-XAIdoLN-AyLL-kkkNF-18" value="&lt;span style=&quot;font-size: 43px;&quot;&gt;ЗБІР МЕТРИК НАВАНТАЖЕННЯ&lt;br&gt;ТА ПРОДУКТИВНОСТІ&lt;/span&gt;" style="text;html=1;align=center;verticalAlign=middle;resizable=0;points=[];autosize=1;strokeColor=none;fillColor=none;" vertex="1" parent="1">
          <mxGeometry x="-330" y="3710" width="680" height="120" as="geometry" />
        </mxCell>
        <mxCell id="C-XAIdoLN-AyLL-kkkNF-19" value="&lt;span style=&quot;font-size: 43px;&quot;&gt;БЛОК МАСШТАБУВАННЯ&lt;br&gt;НА БАЗІ ПОРОГОВИХ ПРАВИЛ&lt;br&gt;&lt;/span&gt;" style="text;html=1;align=center;verticalAlign=middle;resizable=0;points=[];autosize=1;strokeColor=none;fillColor=none;" vertex="1" parent="1">
          <mxGeometry x="1242" y="3680" width="650" height="120" as="geometry" />
        </mxCell>
        <mxCell id="C-XAIdoLN-AyLL-kkkNF-20" value="" style="rounded=1;whiteSpace=wrap;html=1;strokeWidth=18;fillColor=none;arcSize=11;" vertex="1" parent="1">
          <mxGeometry x="1062" y="3820" width="1010" height="750" as="geometry" />
        </mxCell>
        <mxCell id="C-XAIdoLN-AyLL-kkkNF-21" value="" style="group" vertex="1" connectable="0" parent="1">
          <mxGeometry x="1250" y="3850" width="720" height="650" as="geometry" />
        </mxCell>
        <mxCell id="C-XAIdoLN-AyLL-kkkNF-22" value="" style="rounded=0;html=1;jettySize=auto;orthogonalLoop=1;fontSize=11;endArrow=block;endFill=0;endSize=8;strokeWidth=14;shadow=0;labelBackgroundColor=none;edgeStyle=orthogonalEdgeStyle;" edge="1" parent="C-XAIdoLN-AyLL-kkkNF-21" target="C-XAIdoLN-AyLL-kkkNF-25">
          <mxGeometry relative="1" as="geometry">
            <mxPoint x="240.0000000000002" as="sourcePoint" />
          </mxGeometry>
        </mxCell>
        <mxCell id="C-XAIdoLN-AyLL-kkkNF-23" value="&lt;font style=&quot;font-size: 45px;&quot;&gt;Yes&lt;/font&gt;" style="rounded=0;html=1;jettySize=auto;orthogonalLoop=1;fontSize=11;endArrow=block;endFill=0;endSize=8;strokeWidth=14;shadow=0;labelBackgroundColor=none;edgeStyle=orthogonalEdgeStyle;" edge="1" parent="C-XAIdoLN-AyLL-kkkNF-21" source="C-XAIdoLN-AyLL-kkkNF-25">
          <mxGeometry x="-0.5197" y="-63" relative="1" as="geometry">
            <mxPoint as="offset" />
            <mxPoint x="240.0000000000002" y="650" as="targetPoint" />
          </mxGeometry>
        </mxCell>
        <mxCell id="C-XAIdoLN-AyLL-kkkNF-24" value="&lt;font style=&quot;font-size: 45px;&quot;&gt;No&lt;/font&gt;" style="edgeStyle=orthogonalEdgeStyle;rounded=0;html=1;jettySize=auto;orthogonalLoop=1;fontSize=11;endArrow=block;endFill=0;endSize=8;strokeWidth=14;shadow=0;labelBackgroundColor=none;" edge="1" parent="C-XAIdoLN-AyLL-kkkNF-21" source="C-XAIdoLN-AyLL-kkkNF-25">
          <mxGeometry x="-0.0931" y="27" relative="1" as="geometry">
            <mxPoint as="offset" />
            <mxPoint x="720" y="344.117647058823" as="targetPoint" />
          </mxGeometry>
        </mxCell>
        <mxCell id="C-XAIdoLN-AyLL-kkkNF-25" value="&lt;font style=&quot;font-size: 45px;&quot;&gt;IF&lt;/font&gt;" style="rhombus;whiteSpace=wrap;html=1;shadow=0;fontFamily=Helvetica;fontSize=12;align=center;strokeWidth=14;spacing=6;spacingTop=-4;" vertex="1" parent="C-XAIdoLN-AyLL-kkkNF-21">
          <mxGeometry y="191.1764705882356" width="480" height="305.8823529411765" as="geometry" />
        </mxCell>
        <mxCell id="C-XAIdoLN-AyLL-kkkNF-26" value="" style="endArrow=classic;startArrow=none;html=1;rounded=0;strokeWidth=21;startFill=0;" edge="1" parent="1">
          <mxGeometry width="50" height="50" relative="1" as="geometry">
            <mxPoint x="2070" y="4185" as="sourcePoint" />
            <mxPoint x="2910" y="4185" as="targetPoint" />
          </mxGeometry>
        </mxCell>
        <mxCell id="C-XAIdoLN-AyLL-kkkNF-27" value="&lt;font style=&quot;font-size: 43px;&quot;&gt;Рішення про масштабування&lt;/font&gt;" style="text;html=1;align=center;verticalAlign=middle;resizable=0;points=[];autosize=1;strokeColor=none;fillColor=none;" vertex="1" parent="1">
          <mxGeometry x="2165" y="4100" width="600" height="70" as="geometry" />
        </mxCell>
      </root>
    </mxGraphModel>
  </diagram>
</mxfile>
